<svg xmlns="http://www.w3.org/2000/svg" viewBox="-.1 9 23 6"><style>#eUR2BTczqts5_to{animation:eUR2BTczqts5_to__to 2.2s linear infinite normal forwards}@keyframes eUR2BTczqts5_to__to{0%{transform:translate(11.18px,11.04px);animation-timing-function:cubic-bezier(.42,0,.58,1)}45.45%{transform:translate(20px,11.04px);animation-timing-function:cubic-bezier(.42,0,.58,1)}50%{transform:translate(11.18px,11.04px);animation-timing-function:cubic-bezier(.42,0,.58,1)}90.9%{transform:translate(3.1px,11.04px);animation-timing-function:cubic-bezier(.42,0,.58,1)}95.45%{transform:translate(11.18px,11.04px)}100%{transform:translate(11.18px,11.04px)}}#eUR2BTczqts5{animation:eUR2BTczqts5_c_o 2.2s linear infinite normal forwards}@keyframes eUR2BTczqts5_c_o{0%{opacity:1}22.72%{opacity:1;animation-timing-function:cubic-bezier(.42,0,.58,1)}40.90%{opacity:0;animation-timing-function:cubic-bezier(.42,0,.58,1)}50%{opacity:0;animation-timing-function:cubic-bezier(.42,0,.58,1)}54.54%{opacity:1;animation-timing-function:cubic-bezier(.42,0,.58,1)}68.18%{opacity:1;animation-timing-function:cubic-bezier(.42,0,.58,1)}86.36%{opacity:0;animation-timing-function:cubic-bezier(.42,0,.58,1)}95.45%{opacity:0;animation-timing-function:cubic-bezier(.42,0,.58,1)}100%{opacity:1}}</style><defs><linearGradient id="eUR2BTczqts2-fill" x1="-.25" x2="1" y1=".75" y2=".75"><stop offset="0%" stop-color="#ecc94b"/><stop offset="100%" stop-color="#ecc94b00"/></linearGradient><linearGradient id="eUR2BTczqts3-fill" x1="-.25" x2="1" y1=".75" y2=".75"><stop offset="0%" stop-color="#ecc94b"/><stop offset="100%" stop-color="#ecc94b00"/></linearGradient></defs><path fill="url(#eUR2BTczqts2-fill)" stroke="none" d="M3.43 8.86V7.84L-.12 9.89l3.55 2.06v-1.02h4.45V8.86H3.43Z" transform="matrix(1.14 0 0 1.14 .41 .5)"/><path fill="url(#eUR2BTczqts3-fill)" stroke="none" d="M3.43 8.86V7.84L-.12 9.89l3.55 2.06v-1.02h4.45V8.86H3.43Z" transform="matrix(-1.14 0 0 1.14 22.38 .5)"/><path fill="#61615966" d="M10.97 10.97a.24.24 0 1 1 .5 0v1.1l.29.03 1.2.53c.13.06.21.19.21.33v1.07c0 .2-.16.36-.36.37h-1.6a.33.33 0 0 1-.24-.11l-1.2-1.03.19-.19a.24.24 0 0 1 .18-.07h.05l.78.42v-2.45m.25-.98a.98.98 0 0 1 .49 1.83v-.3a.73.73 0 1 0-.98 0v.3a.98.98 0 0 1 .49-1.82m0-.5a1.47 1.47 0 0 1 1.01 2.53l-.24-.11a1.23 1.23 0 0 0-.77-2.17 1.22 1.22 0 0 0-.49 2.34v.27a1.47 1.47 0 0 1 .49-2.86Z"/><g id="eUR2BTczqts5_to" transform="translate(11.18 11.04)"><path id="eUR2BTczqts5" fill="#fadc05" d="M8.24 6.9a.65.65 0 1 1 1.3 0v2.9l.78.08 3.2 1.42c.34.15.55.5.55.87V15a1 1 0 0 1-.97.97H8.89a.88.88 0 0 1-.65-.28l-3.18-2.72.48-.5c.13-.14.3-.2.48-.2h.15l2.07 1.1V6.9m.65-2.6a2.6 2.6 0 0 1 1.3 4.85v-.8a1.94 1.94 0 1 0-2.6 0v.8A2.6 2.6 0 0 1 8.9 4.3m0-1.3a3.89 3.89 0 0 1 2.7 6.7l-.65-.3A3.26 3.26 0 0 0 8.9 3.65a3.24 3.24 0 0 0-1.3 6.21v.7A3.9 3.9 0 0 1 8.9 3Z" transform="matrix(.38 0 0 .38 -3.32 -2.67)"/></g></svg>