<?xml version="1.0" standalone="no"?>
<!DOCTYPE svg PUBLIC "-//W3C//DTD SVG 20010904//EN"
 "http://www.w3.org/TR/2001/REC-SVG-20010904/DTD/svg10.dtd">
<svg version="1.0" xmlns="http://www.w3.org/2000/svg"
 width="700.000000pt" height="700.000000pt" viewBox="0 0 700.000000 700.000000"
 preserveAspectRatio="xMidYMid meet">
<metadata>
Created by potrace 1.14, written by Peter Selinger 2001-2017
</metadata>
<g transform="translate(0.000000,700.000000) scale(0.100000,-0.100000)"
fill="#000000" stroke="none">
<path d="M2542 5865 c-37 -20 -73 -58 -89 -95 -25 -60 -11 -116 72 -283 149
-300 162 -493 51 -721 -44 -89 -85 -154 -207 -326 -167 -235 -227 -336 -283
-478 -90 -228 -105 -495 -42 -761 24 -103 95 -289 123 -322 7 -8 13 -19 13
-24 0 -11 75 -128 119 -185 19 -25 78 -88 131 -140 306 -303 725 -449 1165
-407 74 7 89 10 199 33 373 78 731 327 950 658 177 269 256 540 250 854 -7
339 -136 643 -423 995 -90 110 -270 290 -431 428 -143 123 -462 351 -620 442
-231 133 -350 192 -556 276 -148 59 -361 88 -422 56z"/>
<path d="M2689 2060 c-54 -19 -102 -58 -126 -103 -12 -24 -48 -162 -69 -267
-3 -14 -11 -53 -19 -86 -8 -34 -16 -73 -19 -85 -2 -13 -16 -71 -29 -129 -46
-191 -50 -238 -22 -302 66 -154 268 -162 570 -23 84 39 292 155 351 196 24 16
47 29 52 29 6 0 63 -34 129 -76 215 -138 378 -216 512 -247 226 -52 355 59
321 278 -11 73 -15 103 -25 220 -8 96 -14 162 -20 218 -3 26 -7 71 -10 100 -3
28 -8 66 -12 82 -7 40 -58 112 -83 120 -11 3 -20 10 -20 15 0 5 -25 14 -56 20
-51 11 -69 9 -212 -24 -86 -19 -179 -38 -207 -42 -27 -3 -70 -9 -95 -13 -150
-23 -408 13 -674 94 -144 43 -173 46 -237 25z"/>
</g>
</svg>
